#!OML:ASF H:\Not Pregnant\Project 1\Capture day 1\Session 1\non-pregnant.ASF
:FULLY-SPECIFIED
:DEGREES
310
root 4.57603 15.8962 17.9972 17.0545 2.29696 -7.30466
lowerback -8.16079 6.08567 7.01903
upperback -7.27011 7.74724 0.00171151
thorax -2.14817 3.64233 -3.35368
lowerneck 27.1181 -13.5087 -30.2111
upperneck -13.6301 -24.6483 41.5439
head 1.93668 -15.3839 20.1759
rclavicle 7.24819e-014 2.77305e-014
rhumerus -40.7928 22.7292 -100.575
rradius 81.7572
rwrist -6.47765
rhand -15.1784 -4.7989
rfingers 7.12502
rthumb 10.9927 -34.4911
lclavicle 7.24819e-014 2.77305e-014
lhumerus -71.6332 -1.86542 92.1754
lradius 93.8699
lwrist 46.1107
lhand -15.8422 -11.5047
lfingers 7.12502
lthumb 10.3524 18.2205
rfemur 0.342812 1.73848 28.8394
rtibia 31.2698
rfoot 12.8336 13.4839
rtoes -25.3116
lfemur -51.5045 -3.01281 -12.8103
ltibia 29.2567
lfoot -15.747 1.56113
ltoes -37.9412
311
root 4.60038 15.8353 18.3008 17.0604 2.30513 -7.24973
lowerback -8.57332 5.911 6.84357
upperback -7.31497 7.49098 0.120596
thorax -2.03281 3.52541 -3.12064
lowerneck 26.9002 -13.4676 -30.2525
upperneck -13.625 -24.5621 41.553
head 1.94798 -15.3201 20.1806
rclavicle -3.72364e-014 -9.83984e-015
rhumerus -41.558 23.1436 -100.741
rradius 81.5612
rwrist -7.09796
rhand -14.5861 -3.32738
rfingers 7.12502
rthumb 11.5639 -32.9883
lclavicle -3.72364e-014 -9.83984e-015
lhumerus -71.6511 -2.1259 92.5061
lradius 93.486
lwrist 46.3166
lhand -15.8729 -11.8072
lfingers 7.12502
lthumb 10.3228 17.9195
rfemur -0.342283 1.69837 28.5002
rtibia 33.7822
rfoot 13.8597 13.7305
rtoes -24.4511
lfemur -51.2463 -2.7133 -13.3112
ltibia 29.2669
lfoot -15.3241 0.0482842
ltoes -38.654
312
root 4.62401 15.7681 18.6007 17.0055 2.27456 -7.2152
lowerback -8.87029 5.73677 6.69409
upperback -7.3726 7.24556 0.236211
thorax -1.98757 3.41013 -2.91841
lowerneck 26.707 -13.4174 -30.2653
upperneck -13.6061 -24.4604 41.5617
head 1.94809 -15.2513 20.1907
rclavicle -3.31101e-014 7.95139e-015
rhumerus -42.3676 23.3557 -100.899
rradius 81.4421
rwrist -7.53774
rhand -13.7097 -1.86996
rfingers 7.12502
rthumb 12.409 -31.4816
lclavicle -3.31101e-014 7.95139e-015
lhumerus -71.5528 -2.50481 92.877
lradius 93.0218
lwrist 46.6202
lhand -15.6083 -11.9482
lfingers 7.12502
lthumb 10.578 17.7656
rfemur -1.12029 1.61617 28.1718
rtibia 36.5322
rfoot 14.1892 14.0273
rtoes -23.8739
lfemur -50.9603 -2.2623 -13.8702
ltibia 29.7104
lfoot -14.2392 -1.4765
ltoes -39.2927
313
root 4.64696 15.6996 18.897 16.8865 2.21427 -7.20596
lowerback -9.03503 5.55962 6.57575
upperback -7.43883 7.00679 0.34896
thorax -2.01724 3.2944 -2.74989
lowerneck 26.5411 -13.361 -30.2406
upperneck -13.5951 -24.3404 41.5858
head 1.93177 -15.1787 20.2147
rclavicle -1.54586e-014 -1.92821e-014
rhumerus -43.1914 23.3464 -101.046
rradius 81.3716
rwrist -7.76045
rhand -12.5666 -0.46512
rfingers 7.12502
rthumb 13.5109 -30.0068
lclavicle -1.54586e-014 -1.92821e-014
lhumerus -71.3303 -2.98522 93.2727
lradius 92.4786
lwrist 46.9763
lhand -15.094 -11.9054
lfingers 7.12502
lthumb 11.0741 17.7825
rfemur -1.93422 1.47391 27.8629
rtibia 39.3961
rfoot 13.945 14.1388
rtoes -23.6039
lfemur -50.7361 -1.61404 -14.5332
ltibia 30.6786
lfoot -12.6655 -3.1784
ltoes -39.2948
314
root 4.67024 15.6336 19.1896 16.6927 2.15702 -7.22448
lowerback -9.03568 5.37132 6.51531
upperback -7.52117 6.76466 0.454989
thorax -2.14534 3.17138 -2.63674
lowerneck 26.4304 -13.2872 -30.1907
upperneck -13.6 -24.1966 41.6429
head 1.89587 -15.1038 20.271
rclavicle 5.45819e-014 -8.64713e-015
rhumerus -44.0209 23.0766 -101.186
rradius 81.3222
rwrist -7.76424
rhand -11.168 0.820284
rfingers 7.12502
rthumb 14.8587 -28.6269
lclavicle 5.45819e-014 -8.64713e-015
lhumerus -70.998 -3.5547 93.687
lradius 91.8485
lwrist 47.2597
lhand -14.4292 -11.6642
lfingers 7.12502
lthumb 11.7153 17.9882
rfemur -2.73547 1.24369 27.5807
rtibia 42.2852
rfoot 13.2671 13.8776
rtoes -23.8457
lfemur -50.623 -0.848143 -15.2569
ltibia 32.2136
lfoot -10.852 -5.05515
ltoes -37.9832
315
root 4.69415 15.5709 19.4771 16.4013 2.11511 -7.26547
lowerback -8.83915 5.16413 6.52192
upperback -7.59928 6.5101 0.554002
thorax -2.36917 3.03643 -2.58533
lowerneck 26.3552 -13.1984 -30.1278
upperneck -13.6223 -24.0328 41.7442
head 1.8489 -15.028 20.3628
rclavicle -7.20594e-016 -2.22639e-014
rhumerus -44.807 22.556 -101.313
rradius 81.2462
rwrist -7.54929
rhand -9.58335 1.92522
rfingers 7.12502
rthumb 16.3848 -27.4027
lclavicle -7.20594e-016 -2.22639e-014
lhumerus -70.5295 -4.19499 94.1206
lradius 91.1173
lwrist 47.3486
lhand -13.6913 -11.2956
lfingers 7.12502
lthumb 12.4267 18.315
rfemur -3.50109 0.936727 27.3266
rtibia 45.1678
rfoot 12.2815 13.1491
rtoes -24.7783
lfemur -50.5987 -0.128493 -15.932
ltibia 34.2751
lfoot -9.19705 -6.79105
ltoes -35.2806
